HIERARCHY
ROOT joint_0
{
	OFFSET 0.000000 0.000000 0.000000
	CHANNELS 6 Xposition Yposition Zposition Zrotation Yrotation Xrotation 
	JOINT joint_1
	{
		OFFSET 0.000000 0.000000 0.000000
		CHANNELS 3 Zrotation Yrotation Xrotation
		JOINT joint_2
		{
			OFFSET 3.811170 -8.520760 0.839290
			CHANNELS 3 Zrotation Yrotation Xrotation
			JOINT joint_3
			{
				OFFSET 2.562200 -7.039590 0.000000
				CHANNELS 3 Zrotation Yrotation Xrotation
				JOINT joint_4
				{
					OFFSET 0.157640 -0.433110 2.322550
					CHANNELS 3 Zrotation Yrotation Xrotation
					End Site
					{
						OFFSET 0.000000 0.000000 0.000000
					}
				}
			}
		}
	}
	JOINT joint_5
	{
		OFFSET 0.000000 0.000000 0.000000
		CHANNELS 3 Zrotation Yrotation Xrotation
		JOINT joint_6
		{
			OFFSET -3.848050 -8.780180 0.839290
			CHANNELS 3 Zrotation Yrotation Xrotation
			JOINT joint_7
			{
				OFFSET -2.568260 -7.056230 0.000000
				CHANNELS 3 Zrotation Yrotation Xrotation
				JOINT joint_8
				{
					OFFSET -0.164730 -0.452590 2.363150
					CHANNELS 3 Zrotation Yrotation Xrotation
					End Site
					{
						OFFSET 0.000000 0.000000 0.000000
					}
				}
			}
		}
	}
	JOINT joint_9
	{
		OFFSET 0.028270 2.035590 -0.193380
		CHANNELS 3 Zrotation Yrotation Xrotation
		JOINT joint_10
		{
			OFFSET 0.056720 2.048850 -0.042750
			CHANNELS 3 Zrotation Yrotation Xrotation
			JOINT joint_11
			{
				OFFSET -0.054170 1.746240 0.172020
				CHANNELS 3 Zrotation Yrotation Xrotation
				JOINT joint_12
				{
					OFFSET 0.104070 1.761360 -0.123970
					CHANNELS 3 Zrotation Yrotation Xrotation
					End Site
					{
						OFFSET 0.000000 0.000000 0.000000
					}
				}
			}
			JOINT joint_13
			{
				OFFSET 3.362410 1.200890 -0.311210
				CHANNELS 3 Zrotation Yrotation Xrotation
				JOINT joint_14
				{
					OFFSET 4.983000 -0.000000 -0.000000
					CHANNELS 3 Zrotation Yrotation Xrotation
					JOINT joint_15
					{
						OFFSET 3.483560 -0.000000 -0.000000
						CHANNELS 3 Zrotation Yrotation Xrotation
						JOINT joint_16
						{
							OFFSET 0.715260 -0.000000 -0.000000
							CHANNELS 3 Zrotation Yrotation Xrotation
							End Site
							{
								OFFSET 0.000000 0.000000 0.000000
							}
						}
					}
				}
			}
			JOINT joint_17
			{
				OFFSET -3.136600 1.374050 -0.404650
				CHANNELS 3 Zrotation Yrotation Xrotation
				JOINT joint_18
				{
					OFFSET -5.241900 -0.000000 -0.000000
					CHANNELS 3 Zrotation Yrotation Xrotation
					JOINT joint_19
					{
						OFFSET -3.444170 -0.000000 -0.000000
						CHANNELS 3 Zrotation Yrotation Xrotation
						JOINT joint_20
						{
							OFFSET -0.622530 -0.000000 -0.000000
							CHANNELS 3 Zrotation Yrotation Xrotation
							End Site
							{
								OFFSET 0.000000 0.000000 0.000000
							}
						}
					}
				}
			}
		}
	}
}
MOTION
Frames: 13
Frame Time: 0.031667
4.847296 15.567984 -2.364512 -5.013435 -25.555210 3.808602 -5.688523 15.957203 -28.211655 -4.475551 15.231876 28.099292 -0.690568 8.474185 -12.491105 0.223161 -2.296474 -6.538890 5.799489 -21.116095 1.292910 17.642951 -15.581535 34.200653 1.304878 -3.645447 -14.094164 -0.078376 2.112236 -5.280274 2.151228 2.253447 -7.153974 -1.820894 -1.118567 -8.509804 -1.188085 6.489071 9.115088 -0.530406 3.642548 6.922536 -50.478938 -32.586091 14.504735 75.842188 -61.962514 -42.243312 5.498860 -4.206728 -2.725128 -7.015036 0.025541 0.037517 72.824377 27.096905 27.796392 -88.869315 66.197317 -51.758251 -7.542426 -4.106939 1.192498 7.083978 0.014958 0.023223 
4.817107 15.564921 -2.375835 -4.960369 -25.233309 3.832239 -5.342397 17.576631 -27.965259 -6.070048 14.243097 24.969898 -0.977325 8.219058 -12.729044 0.148041 -1.467096 -4.330727 -0.217206 -19.707482 4.850508 21.417558 -14.955970 32.891619 1.289793 -3.239871 -13.206290 -0.051777 -1.404123 4.587495 1.552550 1.844954 -6.840632 -1.751076 -1.049285 -7.286329 -1.751045 5.692446 9.456808 -0.460527 3.319635 6.491554 -49.093034 -33.179854 11.243477 80.691755 -62.601821 -44.516380 1.857330 -3.869610 1.496264 -6.990144 0.017672 0.035474 75.667314 28.602595 28.485732 -93.669942 65.911327 -53.953162 -4.628749 -0.519285 5.625259 7.080012 0.010007 0.018095 
4.786918 15.561857 -2.387158 -4.907456 -24.911741 3.856510 -5.413129 18.935509 -28.328354 -6.008764 13.942674 23.722518 -1.087571 7.979316 -12.514145 0.022727 -0.879101 -2.423756 -2.961944 -19.167187 6.455673 22.282136 -15.403888 32.531864 1.670116 -3.089282 -13.067061 -0.038727 -1.164604 3.267471 0.699628 1.660733 -6.111638 -1.736007 -1.139037 -7.504308 -1.606990 4.181069 9.196664 -0.181261 2.503612 5.974893 -49.930643 -33.821088 10.707567 84.845664 -63.698582 -47.769759 0.756323 -3.503112 1.482156 -6.971428 0.010992 0.029095 78.962594 28.325837 28.427092 -97.320961 66.559191 -54.980441 -4.302430 -0.537680 6.610996 7.076310 0.003427 0.010257 
4.756367 15.558990 -2.397638 -4.866138 -24.549143 3.883723 -5.616204 20.168627 -29.349619 -6.414392 13.802846 22.500686 -1.482769 7.745550 -12.413026 0.017660 0.769556 2.102894 -4.895156 -17.513142 7.262606 23.459300 -16.272239 32.091606 2.269432 -3.121609 -12.350316 -0.008412 -0.432572 1.187655 0.467558 1.822730 -6.059829 -1.909996 -0.773695 -7.601798 -0.567280 2.194001 8.272880 0.373722 1.437131 5.760456 -51.601143 -34.908823 11.271789 89.423770 -64.815591 -50.909174 -0.782486 -3.826891 -1.198795 -6.952206 0.003964 0.021345 81.620957 27.765536 28.096729 -100.558994 67.346130 -55.541241 -0.710300 0.360817 6.719360 7.056921 -0.001519 0.003506 
4.725811 15.556126 -2.408110 -4.825040 -24.186731 3.911492 -6.505401 20.608101 -29.706415 -5.354694 13.690761 22.184069 -1.567233 8.007860 -12.909652 0.010188 -0.637963 -1.746251 -5.703058 -16.748651 8.079379 23.230667 -16.607825 31.978422 2.624259 -3.374114 -13.110049 -0.016844 0.613395 -1.699096 0.322413 1.972456 -6.265070 -2.289227 -0.643070 -8.830545 0.272172 0.722146 9.694060 1.469560 0.329574 5.683657 -52.102103 -36.556235 10.707923 90.685370 -65.221262 -51.204804 -4.024207 -2.642728 -0.573892 -6.942815 0.000270 0.017297 83.978045 27.347105 28.501531 -105.502582 67.459498 -58.788323 1.366438 2.959166 6.211400 7.043935 -0.005026 -0.000565 
4.695186 15.553324 -2.417671 -4.793570 -23.777342 3.938570 -6.142342 20.806922 -29.194220 -5.312336 13.849701 21.561341 -1.531964 8.797307 -13.772090 0.022072 -0.991837 -2.711724 -6.426381 -16.799622 8.519407 24.483345 -17.212536 30.981049 3.034651 -3.242443 -13.997355 -0.027460 -0.661078 1.761526 0.233628 2.023682 -5.586231 -2.571704 -0.125316 -9.063554 1.049116 -0.705928 8.643003 2.445558 -0.779537 4.864099 -53.628733 -37.451286 11.012145 93.916051 -65.332857 -53.507909 -5.650348 0.014457 -0.272142 -6.942589 -0.002718 0.015771 85.291164 27.061798 29.945099 -111.258686 66.885670 -62.309745 1.604026 3.890946 5.256996 7.041315 -0.008213 -0.003477 
4.664560 15.550523 -2.427211 -4.762252 -23.367880 3.965985 -5.774156 21.228928 -29.880786 -5.361797 13.975772 21.533553 -1.548460 9.464319 -13.817917 0.017705 -0.892657 -2.452529 -6.386692 -16.148785 8.832675 25.744672 -17.132361 30.023469 3.097887 -3.323090 -14.552369 -0.069100 1.330225 -3.768713 0.270257 2.187901 -5.145388 -2.907704 0.120451 -9.147428 0.820634 -1.247063 5.999756 3.381372 -1.191578 3.867215 -55.522256 -38.633241 11.180654 95.091168 -67.030013 -54.155434 -4.570445 2.125013 -0.915082 -6.950685 -0.004539 0.017833 85.419641 27.798539 30.151881 -118.957277 66.979405 -66.560650 -1.249584 -3.211772 5.105866 7.056927 -0.012175 -0.005912 
4.634356 15.547652 -2.435450 -4.730384 -22.914324 3.990155 -6.231335 21.244737 -30.861079 -5.054339 13.900787 21.458713 -1.523202 9.333201 -13.017944 0.002398 0.560203 1.543347 -6.840303 -16.568367 9.271895 26.318498 -17.712208 30.299130 3.013449 -3.146517 -13.425386 -0.085068 1.372641 -4.018126 0.492531 2.431767 -5.104790 -3.172571 0.452593 -9.531606 1.076754 -2.467907 9.278778 3.483061 -1.621034 3.653099 -56.203664 -38.548876 11.149665 95.775553 -68.340136 -54.555965 -2.825823 2.596737 -1.869994 -6.996362 -0.005281 0.019840 83.547042 26.875091 29.183224 -119.372434 67.046932 -66.901860 -1.318301 -4.358758 -2.808731 7.097744 -0.014030 -0.006804 
4.604167 15.544780 -2.443646 -4.698308 -22.460527 4.014283 -6.215615 21.101274 -31.459325 -4.307148 13.429882 21.060305 -1.900017 9.444485 -13.475423 0.000142 -0.116478 -0.319905 -6.857314 -16.585796 9.863688 26.696502 -18.147675 29.178842 2.995770 -2.806150 -14.199389 -0.028768 0.933010 -2.618201 0.707926 2.426694 -5.830184 -3.658594 0.796871 -10.425991 1.008055 -2.433569 8.387735 3.449196 -2.242862 2.761833 -57.161106 -38.857230 12.823530 97.772618 -67.754854 -56.620368 -1.345317 2.819449 -1.310125 -7.025889 -0.005963 0.019400 83.061688 25.937839 30.608716 -124.603859 66.726849 -70.500105 -0.243275 -1.928153 -5.138752 7.119088 -0.014134 -0.007339 
4.574755 15.541664 -2.450464 -4.659977 -21.971764 4.033286 -6.732181 20.927915 -32.111005 -4.072963 13.410013 20.659387 -1.726765 8.487032 -12.676173 0.008416 -0.655662 -1.801563 -6.231000 -15.976653 10.332824 25.654362 -18.039275 28.574642 3.239129 -2.460266 -13.923587 -0.016674 0.584197 -1.663150 0.909678 1.826775 -4.580293 -3.045891 0.657718 -9.051626 1.089512 -1.927685 6.527155 3.554722 -2.266617 2.013514 -57.743076 -37.693565 13.003425 99.136403 -68.455714 -57.176196 -0.728202 1.722317 -1.872720 -7.041750 -0.005144 0.019417 82.434827 22.817427 30.574882 -123.730218 66.533715 -70.145025 0.136885 -1.673945 -4.780205 7.127815 -0.012591 -0.006461 
4.545377 15.538537 -2.457219 -4.621037 -21.482920 4.051727 -5.891891 20.863601 -32.164866 -4.729102 13.579557 20.381042 -2.311000 8.551359 -12.854714 0.010472 0.675511 1.842155 -6.342407 -15.959381 11.319175 25.405041 -17.547210 27.859866 3.626329 -2.308931 -14.373370 -0.032091 -0.877946 2.318747 1.409077 1.657639 -3.868981 -3.374232 0.903079 -9.847784 1.182181 -2.604959 6.012246 3.417304 -3.338581 1.091971 -56.097906 -38.113850 9.935469 98.303456 -68.425920 -57.471882 -1.015737 0.897964 -1.690671 -7.033814 -0.002716 0.021040 78.796278 27.853372 29.536507 -123.231499 66.279460 -69.038136 2.235752 0.981646 -4.340869 7.125912 -0.010036 -0.003828 
4.516542 15.534935 -2.463170 -4.581652 -20.968489 4.067556 -6.010180 21.351428 -31.919161 -5.178069 13.010052 19.797879 -2.304762 8.120363 -12.884715 0.002509 -0.329111 -0.908038 -5.369135 -15.234980 11.250042 26.468481 -17.218954 27.696547 3.222037 -2.554087 -15.419788 -0.159758 -1.370405 2.929559 1.285564 2.046608 -3.647026 -3.241783 1.160628 -9.334160 1.048455 -3.935514 5.697809 2.409241 -4.426084 -0.397933 -57.893337 -37.198392 10.840800 97.737672 -68.807639 -57.348391 -3.027242 -0.815939 -1.642002 -7.026272 -0.002909 0.021020 78.686388 28.604341 26.782327 -122.232134 66.984562 -68.572079 3.143784 4.697702 0.022436 7.125468 -0.010566 -0.004649 
4.487737 15.531307 -2.469074 -4.541675 -20.454391 4.082503 -6.444717 21.163980 -31.817783 -4.761914 12.634982 20.100559 -2.030926 7.690086 -13.498245 0.009548 0.703668 1.914812 -5.286650 -15.774620 11.805701 25.526004 -16.783701 27.889657 2.804481 -2.111347 -15.202409 -0.129416 -1.319235 3.000989 1.022342 2.618366 -3.288570 -3.444872 1.553801 -9.684864 0.286671 -4.637901 5.236554 1.023024 -4.513987 -0.989472 -60.031905 -36.427021 10.984134 96.374007 -68.393826 -56.496033 -1.774251 -1.177499 -2.403996 -7.019420 -0.005075 0.019405 80.934011 27.577802 26.805460 -120.171861 64.697890 -67.847961 -0.631351 5.881398 -2.165662 7.132447 -0.012998 -0.007642 
